<svg id="Camada_1" data-name="Camada 1" xmlns="http://www.w3.org/2000/svg" viewBox="0 0 1033.99 1034"><defs><style>.cls-1{fill:#203040;}.cls-2{fill:#fff;}</style></defs><title>Sem título-2</title><path class="cls-1" d="M1477,540c0,285.53-231.47,517-517,517S443,825.53,443,540h0C443,254.47,674.47,23,960,23s517,231.47,517,517" transform="translate(-443 -23)"/><ellipse class="cls-2" cx="815.96" cy="261.72" rx="227.14" ry="114.89" transform="translate(-476.15 123.39) rotate(-10.05)"/><path class="cls-2" d="M1156.42,540c123.49-123,204-237.36,161.76-289.67C1263.4,182.47,1072.28,285,874,445.08c-39.62,32-77.18,63.86-110.44,94.92-123.49,123-204,237.36-161.76,289.67C656.6,897.53,847.72,795,1046,634.92c39.62-32,76.53-63.86,109.79-94.91" transform="translate(-443 -23)"/><ellipse class="cls-2" cx="1104.04" cy="818.28" rx="227.14" ry="114.89" transform="translate(-568.85 182.2) rotate(-10.05)"/></svg>