<?xml version="1.0" encoding="utf-8"?>
<!-- Generator: Adobe Illustrator 24.0.1, SVG Export Plug-In . SVG Version: 6.00 Build 0)  -->
<svg version="1.1" id="Camada_2" xmlns="http://www.w3.org/2000/svg" xmlns:xlink="http://www.w3.org/1999/xlink" x="0px" y="0px"
	 viewBox="0 0 1920 1080" style="enable-background:new 0 0 1920 1080;" xml:space="preserve">
<style type="text/css">
	.st0{fill:none;}
</style>
<polygon points="193.99,512.57 410.46,512.57 410.46,567.43 247.53,567.43 247.86,646.91 193.99,646.91 "/>
<rect x="193.99" y="433.09" width="216.47" height="54.53"/>
<path d="M657.68,646.91h-79.84l-81.14-81.47v81.47h-53.65V512.57h150.54l12.3-12.3l-12.64-12.64H443.05v-54.53h169.81
	c0,0,46.11,11.75,44.78,66.28c-1.33,54.53-45.67,66.95-45.67,66.95h-35.03L657.68,646.91z"/>
<line class="st0" x1="595.12" y1="487.63" x2="593.26" y2="487.63"/>
<line class="st0" x1="596.01" y1="512.57" x2="593.59" y2="512.57"/>
<g>
	<polygon points="907.7,646.91 853.83,646.91 799.96,513.12 746.09,646.91 692.22,646.91 772.91,433.09 827,433.09 	"/>
</g>
<polygon points="941.39,433.09 1157.76,433.09 1157.76,485.63 1030.51,592.93 1157.76,592.93 1157.76,646.91 941.39,646.91 
	941.39,594.26 1067.75,486.96 941.39,486.52 "/>
<polygon points="1191.45,433.09 1407.81,433.09 1407.81,485.63 1280.57,592.93 1407.81,592.93 1407.81,646.91 1191.45,646.91 
	1191.45,594.26 1317.81,486.96 1191.45,486.52 "/>
<rect x="1444.61" y="433.09" width="215.48" height="53.2"/>
<polygon points="1444.61,513.56 1660.09,513.56 1660.09,568.1 1498.48,568.1 1498.48,592.04 1660.09,592.04 1660.09,646.91 
	1444.61,646.91 "/>
</svg>
