<?xml version="1.0" encoding="UTF-8" standalone="no"?>
<svg
   xmlns:dc="http://purl.org/dc/elements/1.1/"
   xmlns:cc="http://creativecommons.org/ns#"
   xmlns:rdf="http://www.w3.org/1999/02/22-rdf-syntax-ns#"
   xmlns:svg="http://www.w3.org/2000/svg"
   xmlns="http://www.w3.org/2000/svg"
   xmlns:sodipodi="http://sodipodi.sourceforge.net/DTD/sodipodi-0.dtd"
   xmlns:inkscape="http://www.inkscape.org/namespaces/inkscape"
   inkscape:version="1.0 (4035a4fb49, 2020-05-01)"
   sodipodi:docname="headphone.svg"
   xml:space="preserve"
   style="enable-background:new 0 0 448 448;"
   viewBox="0 0 448 448"
   height="448px"
   width="448px"
   y="0px"
   x="0px"
   id="Capa_1"
   version="1.1"><metadata
   id="metadata41"><rdf:RDF><cc:Work
       rdf:about=""><dc:format>image/svg+xml</dc:format><dc:type
         rdf:resource="http://purl.org/dc/dcmitype/StillImage" /></cc:Work></rdf:RDF></metadata><defs
   id="defs39" /><sodipodi:namedview
   inkscape:current-layer="Capa_1"
   inkscape:window-maximized="1"
   inkscape:window-y="-9"
   inkscape:window-x="-9"
   inkscape:cy="205.71048"
   inkscape:cx="224"
   inkscape:zoom="1.8526786"
   showgrid="false"
   id="namedview37"
   inkscape:window-height="1001"
   inkscape:window-width="1920"
   inkscape:pageshadow="2"
   inkscape:pageopacity="0"
   guidetolerance="10"
   gridtolerance="10"
   objecttolerance="10"
   borderopacity="1"
   bordercolor="#666666"
   pagecolor="#ffffff" />
<g
   style="fill:#ffffff;fill-opacity:1"
   transform="matrix(0.58433735,0,0,0.58433735,99.315665,94.997593)"
   id="g4">
	<path
   style="fill:#ffffff;fill-opacity:1"
   id="path2"
   d="m 414.875,340.719 c 0.656,3.687 1.125,7.406 1.125,11.281 0,35.344 -28.656,64 -64,64 0,17.688 -14.312,32 -32,32 -17.688,0 -32,-14.312 -32,-32 V 288 c 0,-17.688 14.312,-32 32,-32 17.688,0 32,14.312 32,32 17.625,0 33.594,7.125 45.156,18.688 C 409.188,281.625 416,253.594 416,224 416,118.125 329.875,32 224,32 118.125,32 32,118.125 32,224 c 0,29.594 6.813,57.625 18.844,82.656 C 62.422,295.125 78.375,288 96,288 c 0,-17.688 14.313,-32 32,-32 17.687,0 32,14.312 32,32 v 128 c 0,17.688 -14.313,32 -32,32 -17.687,0 -32,-14.312 -32,-32 -35.344,0 -64,-28.656 -64,-64 0,-3.875 0.484,-7.625 1.141,-11.281 C 12.266,306.719 0,266.844 0,224 0,100.281 100.281,0 224,0 c 123.719,0 224,100.281 224,224 0,42.844 -12.25,82.719 -33.125,116.719 z" />
</g>
<g
   id="g6">
</g>
<g
   id="g8">
</g>
<g
   id="g10">
</g>
<g
   id="g12">
</g>
<g
   id="g14">
</g>
<g
   id="g16">
</g>
<g
   id="g18">
</g>
<g
   id="g20">
</g>
<g
   id="g22">
</g>
<g
   id="g24">
</g>
<g
   id="g26">
</g>
<g
   id="g28">
</g>
<g
   id="g30">
</g>
<g
   id="g32">
</g>
<g
   id="g34">
</g>
</svg>
