<?xml version="1.0" encoding="UTF-8" standalone="no"?>
<svg
   xmlns:dc="http://purl.org/dc/elements/1.1/"
   xmlns:cc="http://creativecommons.org/ns#"
   xmlns:rdf="http://www.w3.org/1999/02/22-rdf-syntax-ns#"
   xmlns:svg="http://www.w3.org/2000/svg"
   xmlns="http://www.w3.org/2000/svg"
   xmlns:sodipodi="http://sodipodi.sourceforge.net/DTD/sodipodi-0.dtd"
   xmlns:inkscape="http://www.inkscape.org/namespaces/inkscape"
   inkscape:version="1.0 (4035a4fb49, 2020-05-01)"
   sodipodi:docname="information.svg"
   xml:space="preserve"
   style="enable-background:new 0 0 15.999 15.999;"
   viewBox="0 0 15.999 15.999"
   y="0px"
   x="0px"
   id="Capa_1"
   version="1.1"><metadata
   id="metadata45"><rdf:RDF><cc:Work
       rdf:about=""><dc:format>image/svg+xml</dc:format><dc:type
         rdf:resource="http://purl.org/dc/dcmitype/StillImage" /></cc:Work></rdf:RDF></metadata><defs
   id="defs43" /><sodipodi:namedview
   inkscape:current-layer="Capa_1"
   inkscape:window-maximized="1"
   inkscape:window-y="-9"
   inkscape:window-x="-9"
   inkscape:cy="5.8265824"
   inkscape:cx="7.9994998"
   inkscape:zoom="51.878244"
   showgrid="false"
   id="namedview41"
   inkscape:window-height="1001"
   inkscape:window-width="1920"
   inkscape:pageshadow="2"
   inkscape:pageopacity="0"
   guidetolerance="10"
   gridtolerance="10"
   objecttolerance="10"
   borderopacity="1"
   bordercolor="#666666"
   pagecolor="#ffffff" />
<g
   style="fill:#ffffff;fill-opacity:1"
   transform="matrix(0.58919323,0,0,0.58919323,3.2526777,3.3732831)"
   id="g8">
	<g
   style="fill:#ffffff;fill-opacity:1"
   id="g6">
		<path
   id="path2"
   d="M 10.339,14.024 C 10.333,14.026 9.78,14.21 9.3,14.21 c -0.265,0 -0.372,-0.055 -0.406,-0.079 -0.168,-0.117 -0.48,-0.336 0.054,-1.4 l 1,-1.994 C 10.541,9.553 10.629,8.408 10.193,7.512 9.837,6.779 9.154,6.276 8.273,6.096 7.956,6.031 7.634,5.999 7.315,5.999 5.466,5.999 4.221,7.079 4.169,7.125 3.99,7.283 3.948,7.545 4.067,7.751 c 0.12,0.206 0.367,0.3 0.595,0.222 0.005,-0.002 0.559,-0.187 1.039,-0.187 0.263,0 0.369,0.055 0.402,0.078 0.169,0.118 0.482,0.34 -0.051,1.402 l -1,1.995 c -0.594,1.185 -0.681,2.33 -0.245,3.225 0.356,0.733 1.038,1.236 1.921,1.416 0.314,0.063 0.636,0.097 0.954,0.097 1.85,0 3.096,-1.08 3.148,-1.126 0.179,-0.157 0.221,-0.42 0.102,-0.626 -0.12,-0.205 -0.369,-0.297 -0.593,-0.223 z"
   style="fill:#ffffff;fill-opacity:1" />
		<circle
   id="circle4"
   r="2.5"
   cy="2.5"
   cx="9.5"
   style="fill:#ffffff;fill-opacity:1" />
	</g>
</g>
<g
   id="g10">
</g>
<g
   id="g12">
</g>
<g
   id="g14">
</g>
<g
   id="g16">
</g>
<g
   id="g18">
</g>
<g
   id="g20">
</g>
<g
   id="g22">
</g>
<g
   id="g24">
</g>
<g
   id="g26">
</g>
<g
   id="g28">
</g>
<g
   id="g30">
</g>
<g
   id="g32">
</g>
<g
   id="g34">
</g>
<g
   id="g36">
</g>
<g
   id="g38">
</g>
</svg>
