<?xml version="1.0" encoding="UTF-8" standalone="no"?>
<svg
   xmlns:dc="http://purl.org/dc/elements/1.1/"
   xmlns:cc="http://creativecommons.org/ns#"
   xmlns:rdf="http://www.w3.org/1999/02/22-rdf-syntax-ns#"
   xmlns:svg="http://www.w3.org/2000/svg"
   xmlns="http://www.w3.org/2000/svg"
   xmlns:sodipodi="http://sodipodi.sourceforge.net/DTD/sodipodi-0.dtd"
   xmlns:inkscape="http://www.inkscape.org/namespaces/inkscape"
   inkscape:version="1.0 (4035a4fb49, 2020-05-01)"
   sodipodi:docname="london.svg"
   version="1.1"
   id="svg2"
   xml:space="preserve"
   width="500"
   height="220"
   viewBox="0 0 500 220"><sodipodi:namedview
     inkscape:current-layer="svg2"
     inkscape:window-maximized="1"
     inkscape:window-y="-9"
     inkscape:window-x="-9"
     inkscape:cy="136.62405"
     inkscape:cx="136.13575"
     inkscape:zoom="1.5301741"
     showgrid="false"
     id="namedview104"
     inkscape:window-height="1001"
     inkscape:window-width="1920"
     inkscape:pageshadow="2"
     inkscape:pageopacity="0"
     guidetolerance="10"
     gridtolerance="10"
     objecttolerance="10"
     borderopacity="1"
     bordercolor="#666666"
     pagecolor="#ffffff"
     inkscape:document-rotation="0" /><metadata
     id="metadata8"><rdf:RDF><cc:Work
         rdf:about=""><dc:format>image/svg+xml</dc:format><dc:type
           rdf:resource="http://purl.org/dc/dcmitype/StillImage" /><dc:title /></cc:Work></rdf:RDF></metadata><defs
     id="defs6" /><g
     id="g10"
     transform="matrix(1.0030702,0,0,-1.0030702,-0.75808369,319.20293)"><g
       id="g12"
       transform="scale(0.1)"><path
         d="M 5000,5000 V 0 H 0 v 5000 h 5000"
         style="fill:#203040;fill-opacity:1;fill-rule:nonzero;stroke:none"
         id="path14" /><path
         d="m 916.469,1334.1 c 0,874.56 708.971,1583.53 1583.531,1583.53 874.56,0 1583.53,-708.97 1583.53,-1583.53 H 916.469"
         style="fill:#a0b0c0;fill-opacity:1;fill-rule:nonzero;stroke:none"
         id="path16" /><path
         d="m 3815.75,1995.85 c -43.34,508.22 -139.42,519.58 -165.05,514.5 -25.63,5.08 -121.72,-6.28 -165.06,-514.5 -20.93,-245.4 -12.18,-467.62 15.66,-642.43 h 130.24 38.32 130.24 c 27.84,174.81 36.58,397.03 15.65,642.43"
         style="fill:#607080;fill-opacity:1;fill-rule:nonzero;stroke:none"
         id="path18" /><path
         d="m 3325.61,1532.04 v 63.42 l 64.91,-63.42 z m -7.41,0 h -36.04 v 105.88 l 36.04,-35.21 z m -43.45,0 h -36.05 v 148.34 l 36.05,-35.22 z m -43.46,0 h -36.04 v 190.79 l 36.04,-35.21 z m -43.45,0 h -36.04 v 233.24 l 36.04,-35.21 z m -43.46,0 h -36.04 v 275.69 l 36.04,-35.21 z m -43.45,0 h -36.04 v 318.15 l 36.04,-35.22 z m -43.46,0 h -24.01 v 0.05 h -2.16 v 342.32 8.59 l 26.17,-25.57 z m -240,449.31 h -82.83 v 45.69 h 82.83 z m 0,-449.26 h -593.34 v 414.44 h 593.34 z m -593.34,494.95 h 82.82 v -45.69 h -82.82 z m 91.53,0 h 45.69 v -45.69 h -45.69 z m 54.4,0 h 73.63 v -45.69 h -73.63 z m 227.85,0 h 73.63 v -45.69 h -73.63 z m 82.33,0 h 45.7 v -45.69 h -45.7 z m -669.95,-152.63 v -342.32 h -2.16 v -0.05 h -24.01 v 325.39 l 26.17,25.57 z m -33.58,-342.37 h -36.05 v 282.93 l 36.05,35.22 z m -43.46,0 h -36.04 v 240.48 l 36.04,35.21 z m -43.45,0 h -36.04 v 198.03 l 36.04,35.21 z m -43.45,0 h -36.04 v 155.58 l 36.04,35.21 z m -43.45,0 h -36.05 v 113.12 l 36.05,35.22 z m -43.46,0 h -36.04 v 70.67 l 36.04,35.21 z m -43.45,0 h -64.92 l 64.92,63.42 z m 1692.57,0 1.55,1.59 -127.95,125.01 v 1.05 h -1.07 l -172.75,168.77 v 1.57 h -1.61 l -75.43,73.7 v 220.96 l -32.13,67.81 v 4.31 h 7.43 v 3.24 h -7.43 v 21.1 h -4.28 v -21.1 h -6.36 v -3.24 h 6.36 v -4.85 l -17.04,-38.35 -51.32,146.95 v 9.75 h 6.87 v 3.24 h -6.87 v 36.64 h -4.28 v -36.64 h -6.92 v -3.24 h 6.92 v -9.74 l -51.32,-146.96 -17.76,39.95 v 4.87 h 7.04 v 3.25 h -7.04 v 19.47 h -4.28 v -19.47 h -6.75 v -3.25 h 6.75 v -7.77 l -31.42,-65.97 v -91.12 h -219.56 v 17.32 h -46.23 v 15.5 h -61.76 v -15.5 h -46.23 v -17.32 h -219.56 v 91.12 l -31.42,65.97 v 7.77 h 6.75 v 3.25 h -6.75 v 19.47 h -4.28 v -19.47 h -7.04 v -3.25 h 7.04 v -4.87 l -17.76,-39.95 -51.32,146.96 v 9.74 h 6.91 v 3.24 h -6.91 v 36.64 h -4.28 v -36.64 h -6.87 v -3.24 h 6.87 v -9.75 l -51.32,-146.95 -17.04,38.35 v 4.85 h 6.36 v 3.24 h -6.36 v 21.1 h -4.29 v -21.1 H 2035 v -3.24 h 7.42 v -4.31 l -32.13,-67.81 v -220.96 l -75.43,-73.7 h -1.61 v -1.57 l -172.74,-168.77 h -1.07 v -1.05 l -127.95,-125.01 1.55,-1.59 h -68.12 v -46.83 h 398.22 v -131.79 h 319.87 v 40.25 c 0,15.99 7.68,31.12 20.92,40.1 0.34,0.23 0.69,0.46 1.03,0.7 50.54,33.96 110.7,50.74 171.59,50.74 h 44.25 44.24 c 60.9,0 121.05,-16.78 171.59,-50.74 0.35,-0.24 0.7,-0.47 1.04,-0.7 13.24,-8.98 20.91,-24.11 20.91,-40.1 v -40.25 h 319.88 v 131.79 h 398.22 v 46.83 h -68.12"
         style="fill:#607080;fill-opacity:1;fill-rule:nonzero;stroke:none"
         id="path20" /><path
         d="m 1289.72,2460.83 c -257.12,0 -466.286,-209.17 -466.286,-466.28 0,-257.1 209.166,-466.28 466.286,-466.28 257.1,0 466.27,209.18 466.27,466.28 0,257.11 -209.17,466.28 -466.27,466.28 z m 0,-942.56 c -262.63,0 -476.29,213.66 -476.29,476.28 0,262.63 213.66,476.29 476.29,476.29 262.62,0 476.28,-213.66 476.28,-476.29 0,-262.62 -213.66,-476.28 -476.28,-476.28"
         style="fill:#607080;fill-opacity:1;fill-rule:nonzero;stroke:none"
         id="path22" /><path
         d="m 1289.72,2350.58 c -196.31,0 -356.029,-159.72 -356.029,-356.03 0,-196.3 159.719,-356.02 356.029,-356.02 196.3,0 356.01,159.72 356.01,356.02 0,196.31 -159.71,356.03 -356.01,356.03 z m 0,-722.05 c -201.82,0 -366.032,164.2 -366.032,366.02 0,201.83 164.212,366.03 366.032,366.03 201.82,0 366.02,-164.2 366.02,-366.03 0,-201.82 -164.2,-366.02 -366.02,-366.02"
         style="fill:#607080;fill-opacity:1;fill-rule:nonzero;stroke:none"
         id="path24" /><path
         d="m 1105.13,1365.09 h 369.17 l -184.58,621.38 z m 381.31,-11.67 h -393.45 c -2.44,0 -4.68,1.16 -5.85,3.03 -1.16,1.86 -1.09,4.14 0.22,5.94 l 196.73,638.08 c 2.45,3.38 8.8,3.38 11.25,0 l 196.73,-638.08 c 1.31,-1.8 1.39,-4.08 0.22,-5.94 -1.17,-1.87 -3.41,-3.03 -5.85,-3.03"
         style="fill:#607080;fill-opacity:1;fill-rule:nonzero;stroke:none"
         id="path26" /><path
         d="m 1294.72,1523.27 h -10 v 942.56 h 10 v -942.56"
         style="fill:#607080;fill-opacity:1;fill-rule:nonzero;stroke:none"
         id="path28" /><path
         d="m 1366.63,1529.56 -163.67,928.24 9.85,1.74 163.67,-928.24 -9.85,-1.74"
         style="fill:#607080;fill-opacity:1;fill-rule:nonzero;stroke:none"
         id="path30" /><path
         d="m 1446.2,1549.98 -322.37,885.72 9.41,3.43 322.37,-885.72 -9.41,-3.43"
         style="fill:#607080;fill-opacity:1;fill-rule:nonzero;stroke:none"
         id="path32" /><path
         d="m 1521.02,1583.91 -471.27,816.28 8.67,5.01 471.27,-816.29 -8.67,-5"
         style="fill:#607080;fill-opacity:1;fill-rule:nonzero;stroke:none"
         id="path34" /><path
         d="m 1588.81,1630.31 -605.857,722.05 7.656,6.43 605.861,-722.04 -7.66,-6.44"
         style="fill:#607080;fill-opacity:1;fill-rule:nonzero;stroke:none"
         id="path36" /><path
         d="m 1647.52,1687.79 -722.047,605.87 6.433,7.65 722.044,-605.86 -6.43,-7.66"
         style="fill:#607080;fill-opacity:1;fill-rule:nonzero;stroke:none"
         id="path38" /><path
         d="m 1695.36,1754.58 -816.282,471.28 5,8.66 816.282,-471.28 -5,-8.66"
         style="fill:#607080;fill-opacity:1;fill-rule:nonzero;stroke:none"
         id="path40" /><path
         d="m 1730.87,1828.66 -885.722,322.38 3.411,9.4 885.721,-322.38 -3.41,-9.4"
         style="fill:#607080;fill-opacity:1;fill-rule:nonzero;stroke:none"
         id="path42" /><path
         d="m 1752.97,1907.79 -928.247,163.68 1.746,9.84 928.251,-163.67 -1.75,-9.85"
         style="fill:#607080;fill-opacity:1;fill-rule:nonzero;stroke:none"
         id="path44" /><path
         d="M 1760.99,1989.55 H 818.434 v 10.01 h 942.556 v -10.01"
         style="fill:#607080;fill-opacity:1;fill-rule:nonzero;stroke:none"
         id="path46" /><path
         d="m 826.469,1907.79 -1.746,9.85 928.247,163.67 1.75,-9.84 -928.251,-163.68"
         style="fill:#607080;fill-opacity:1;fill-rule:nonzero;stroke:none"
         id="path48" /><path
         d="m 848.559,1828.66 -3.411,9.4 885.722,322.38 3.41,-9.4 -885.721,-322.38"
         style="fill:#607080;fill-opacity:1;fill-rule:nonzero;stroke:none"
         id="path50" /><path
         d="m 884.078,1754.58 -5,8.66 816.282,471.28 5,-8.66 -816.282,-471.28"
         style="fill:#607080;fill-opacity:1;fill-rule:nonzero;stroke:none"
         id="path52" /><path
         d="m 931.906,1687.79 -6.433,7.66 722.047,605.86 6.43,-7.65 -722.044,-605.87"
         style="fill:#607080;fill-opacity:1;fill-rule:nonzero;stroke:none"
         id="path54" /><path
         d="m 990.609,1630.31 -7.656,6.44 605.857,722.04 7.66,-6.43 -605.861,-722.05"
         style="fill:#607080;fill-opacity:1;fill-rule:nonzero;stroke:none"
         id="path56" /><path
         d="m 1058.42,1583.91 -8.67,5 471.27,816.29 8.67,-5.01 -471.27,-816.28"
         style="fill:#607080;fill-opacity:1;fill-rule:nonzero;stroke:none"
         id="path58" /><path
         d="m 1133.24,1549.98 -9.41,3.43 322.37,885.72 9.41,-3.43 -322.37,-885.72"
         style="fill:#607080;fill-opacity:1;fill-rule:nonzero;stroke:none"
         id="path60" /><path
         d="m 1212.81,1529.56 -9.85,1.74 163.67,928.24 9.85,-1.74 -163.67,-928.24"
         style="fill:#607080;fill-opacity:1;fill-rule:nonzero;stroke:none"
         id="path62" /><path
         d="m 1314.17,2409.53 c 0,-13.51 -10.95,-24.46 -24.45,-24.46 -13.51,0 -24.46,10.95 -24.46,24.46 0,13.5 10.95,24.45 24.46,24.45 13.5,0 24.45,-10.95 24.45,-24.45"
         style="fill:#607080;fill-opacity:1;fill-rule:nonzero;stroke:none"
         id="path64" /><path
         d="m 1170.77,2392.86 c 4.61,-12.69 -1.93,-26.72 -14.62,-31.34 -12.69,-4.62 -26.72,1.93 -31.34,14.62 -4.62,12.69 1.92,26.72 14.61,31.34 12.69,4.62 26.73,-1.93 31.35,-14.62"
         style="fill:#607080;fill-opacity:1;fill-rule:nonzero;stroke:none"
         id="path66" /><path
         d="m 1041.71,2328.16 c 8.68,-10.35 7.33,-25.77 -3.02,-34.45 -10.34,-8.68 -25.76,-7.33 -34.44,3.01 -8.684,10.35 -7.336,25.77 3.01,34.45 10.34,8.68 25.77,7.33 34.45,-3.01"
         style="fill:#607080;fill-opacity:1;fill-rule:nonzero;stroke:none"
         id="path68" /><path
         d="m 942.566,2223.22 c 11.696,-6.75 15.7,-21.71 8.95,-33.4 -6.754,-11.7 -21.707,-15.71 -33.403,-8.95 -11.695,6.75 -15.703,21.7 -8.953,33.4 6.754,11.69 21.707,15.7 33.406,8.95"
         style="fill:#607080;fill-opacity:1;fill-rule:nonzero;stroke:none"
         id="path70" /><path
         d="m 885.293,2090.7 c 13.301,-2.35 22.18,-15.03 19.836,-28.33 -2.348,-13.3 -15.031,-22.18 -28.328,-19.84 -13.301,2.35 -22.18,15.03 -19.836,28.33 2.344,13.3 15.027,22.18 28.328,19.84"
         style="fill:#607080;fill-opacity:1;fill-rule:nonzero;stroke:none"
         id="path72" /><path
         d="m 876.801,1946.58 c 13.297,2.34 25.98,-6.54 28.324,-19.84 2.348,-13.3 -6.535,-25.98 -19.832,-28.32 -13.301,-2.35 -25.984,6.53 -28.328,19.83 -2.348,13.3 6.535,25.98 19.836,28.33"
         style="fill:#607080;fill-opacity:1;fill-rule:nonzero;stroke:none"
         id="path74" /><path
         d="m 918.109,1808.25 c 11.696,6.75 26.649,2.74 33.403,-8.95 6.754,-11.7 2.746,-26.66 -8.949,-33.41 -11.696,-6.75 -26.653,-2.74 -33.403,8.95 -6.754,11.7 -2.746,26.65 8.949,33.41"
         style="fill:#607080;fill-opacity:1;fill-rule:nonzero;stroke:none"
         id="path76" /><path
         d="m 1004.24,1692.38 c 8.68,10.35 24.1,11.7 34.45,3.02 10.34,-8.68 11.69,-24.11 3.01,-34.45 -8.68,-10.35 -24.1,-11.7 -34.45,-3.01 -10.34,8.68 -11.691,24.1 -3.01,34.44"
         style="fill:#5d5d5d;fill-opacity:1;fill-rule:nonzero;stroke:none"
         id="path78" /><path
         d="m 1124.8,1612.97 c 4.62,12.69 18.65,19.23 31.34,14.61 12.7,-4.61 19.24,-18.65 14.62,-31.34 -4.62,-12.69 -18.65,-19.23 -31.34,-14.61 -12.69,4.62 -19.23,18.65 -14.62,31.34"
         style="fill:#5d5d5d;fill-opacity:1;fill-rule:nonzero;stroke:none"
         id="path80" /><path
         d="m 1265.26,1579.58 c 0,13.5 10.95,24.45 24.45,24.45 13.51,0 24.45,-10.95 24.45,-24.45 0,-13.51 -10.94,-24.45 -24.45,-24.45 -13.5,0 -24.45,10.94 -24.45,24.45"
         style="fill:#607080;fill-opacity:1;fill-rule:nonzero;stroke:none"
         id="path82" /><path
         d="m 1408.66,1596.24 c -4.62,12.69 1.93,26.72 14.62,31.34 12.69,4.62 26.72,-1.92 31.34,-14.61 4.62,-12.69 -1.93,-26.72 -14.62,-31.34 -12.69,-4.62 -26.72,1.92 -31.34,14.61"
         style="fill:#5d5d5d;fill-opacity:1;fill-rule:nonzero;stroke:none"
         id="path84" /><path
         d="m 1537.72,1660.94 c -8.68,10.35 -7.33,25.77 3.01,34.45 10.35,8.69 25.77,7.34 34.45,-3.01 8.68,-10.34 7.33,-25.77 -3.01,-34.45 -10.35,-8.68 -25.77,-7.33 -34.45,3.01"
         style="fill:#5d5d5d;fill-opacity:1;fill-rule:nonzero;stroke:none"
         id="path86" /><path
         d="m 1636.86,1765.89 c -11.69,6.75 -15.7,21.7 -8.95,33.4 6.76,11.69 21.71,15.7 33.41,8.95 11.69,-6.75 15.7,-21.71 8.95,-33.4 -6.76,-11.7 -21.71,-15.71 -33.41,-8.95"
         style="fill:#5d5d5d;fill-opacity:1;fill-rule:nonzero;stroke:none"
         id="path88" /><path
         d="m 1694.14,1898.41 c -13.3,2.34 -22.18,15.03 -19.84,28.33 2.35,13.3 15.03,22.18 28.33,19.83 13.3,-2.34 22.18,-15.03 19.83,-28.33 -2.34,-13.3 -15.03,-22.18 -28.32,-19.83"
         style="fill:#607080;fill-opacity:1;fill-rule:nonzero;stroke:none"
         id="path90" /><path
         d="m 1702.63,2042.53 c -13.3,-2.35 -25.98,6.53 -28.33,19.83 -2.34,13.3 6.54,25.98 19.84,28.33 13.3,2.34 25.98,-6.54 28.32,-19.84 2.35,-13.3 -6.53,-25.98 -19.83,-28.32"
         style="fill:#607080;fill-opacity:1;fill-rule:nonzero;stroke:none"
         id="path92" /><path
         d="m 1661.32,2180.86 c -11.7,-6.75 -26.65,-2.75 -33.4,8.95 -6.76,11.7 -2.75,26.65 8.95,33.4 11.69,6.75 26.65,2.75 33.4,-8.95 6.75,-11.69 2.74,-26.65 -8.95,-33.4"
         style="fill:#607080;fill-opacity:1;fill-rule:nonzero;stroke:none"
         id="path94" /><path
         d="m 1575.19,2296.72 c -8.68,-10.35 -24.11,-11.69 -34.45,-3.01 -10.35,8.68 -11.7,24.1 -3.02,34.45 8.68,10.34 24.11,11.69 34.45,3.01 10.35,-8.68 11.7,-24.1 3.02,-34.45"
         style="fill:#607080;fill-opacity:1;fill-rule:nonzero;stroke:none"
         id="path96" /><path
         d="m 1454.62,2376.13 c -4.62,-12.69 -18.65,-19.23 -31.34,-14.61 -12.69,4.62 -19.23,18.65 -14.61,31.34 4.62,12.69 18.65,19.23 31.34,14.62 12.69,-4.62 19.23,-18.65 14.61,-31.35"
         style="fill:#607080;fill-opacity:1;fill-rule:nonzero;stroke:none"
         id="path98" /><path
         d="m 4014.53,2185.21 c -48.28,0 -87.43,39.14 -87.43,87.42 0,48.28 39.15,87.42 87.43,87.42 48.28,0 87.42,-39.14 87.42,-87.42 0,-48.28 -39.14,-87.42 -87.42,-87.42 z m 175.72,321.52 v -88.77 h -41.19 v 87.73 l -64.34,66.67 v 111.13 l -67.27,86.44 v 148.34 h -5.84 v -148.34 l -67.27,-86.44 V 2572.36 L 3880,2505.69 v -87.73 h -41.19 v 88.77 h -5.6 v -88.77 -91.18 -201.28 h 17.14 v -772.08 h 164.18 164.18 v 772.08 h 17.14 v 201.28 91.18 88.77 h -5.6"
         style="fill:#607080;fill-opacity:1;fill-rule:nonzero;stroke:none"
         id="path100" /><path
         d="m 4173.89,2464.39 h -318.72 v -56.82 h 318.72 v 56.82"
         style="fill:#607080;fill-opacity:1;fill-rule:nonzero;stroke:none"
         id="path102" /><path
         d="m 4063.77,2267.07 h -54.8 v 76.26 h 11.12 v -65.14 h 43.68 v -11.12"
         style="fill:#5d5d5d;fill-opacity:1;fill-rule:nonzero;stroke:none"
         id="path104" /><path
         d="m 1706.28,2035.43 h -250.74 v -682.01 h 250.74 v 682.01"
         style="fill:#607080;fill-opacity:1;fill-rule:nonzero;stroke:none"
         id="path106" /><path
         d="M 1184.44,1898.03 H 933.691 v -544.61 h 250.749 v 544.61"
         style="fill:#607080;fill-opacity:1;fill-rule:nonzero;stroke:none"
         id="path108" /><path
         d="M 879.078,1898.03 753.703,2015.95 628.328,1898.03 v -544.61 h 250.75 v 544.61"
         style="fill:#607080;fill-opacity:1;fill-rule:nonzero;stroke:none"
         id="path110" /><path
         d="M 753.703,1607.78 628.328,1725.69 502.957,1607.78 v -254.36 h 250.746 v 254.36"
         style="fill:#607080;fill-opacity:1;fill-rule:nonzero;stroke:none"
         id="path112" /><path
         d="m 4650.81,1607.78 -125.37,117.91 -125.37,-117.91 v -254.36 h 250.74 v 254.36"
         style="fill:#607080;fill-opacity:1;fill-rule:nonzero;stroke:none"
         id="path114" /><path
         d="M 1059.06,1979.83 H 933.691 v -544.62 h 125.369 v 544.62"
         style="fill:#607080;fill-opacity:1;fill-rule:nonzero;stroke:none"
         id="path116" /><path
         d="m 4457.28,1898.03 h -250.75 v -544.61 h 250.75 v 544.61"
         style="fill:#607080;fill-opacity:1;fill-rule:nonzero;stroke:none"
         id="path118" /><path
         d="m 4331.91,1979.83 h -125.38 v -544.62 h 125.38 v 544.62"
         style="fill:#607080;fill-opacity:1;fill-rule:nonzero;stroke:none"
         id="path120" /><path
         d="m 1673.93,2066.61 h -186.04 v -642.34 h 186.04 v 642.34"
         style="fill:#607080;fill-opacity:1;fill-rule:nonzero;stroke:none"
         id="path122" /><path
         d="M 1651.07,1539.56 H 349.188 V 1353.42 H 1651.07 v 186.14"
         style="fill:#607080;fill-opacity:1;fill-rule:nonzero;stroke:none"
         id="path124" /><path
         d="M 4650.81,1539.56 H 3348.93 v -186.14 h 1301.88 v 186.14"
         style="fill:#607080;fill-opacity:1;fill-rule:nonzero;stroke:none"
         id="path126" /><path
         d="m 4331.91,1638.53 h -655.36 v -192.04 h 655.36 v 192.04"
         style="fill:#607080;fill-opacity:1;fill-rule:nonzero;stroke:none"
         id="path128" /><path
         d="m 1537.72,1660.94 h -253 v -137.67 h 253 v 137.67"
         style="fill:#607080;fill-opacity:1;fill-rule:nonzero;stroke:none"
         id="path130" /><path
         d="m 1242.33,1754.58 h -183.27 v -319.37 h 183.27 v 319.37"
         style="fill:#607080;fill-opacity:1;fill-rule:nonzero;stroke:none"
         id="path132" /><path
         d="M 4770,1334.1 H 230 v 38.64 h 4540 v -38.64"
         style="fill:#607080;fill-opacity:1;fill-rule:nonzero;stroke:none"
         id="path134" /><g
         id="g136"
         transform="scale(10)">
</g><path
         d="m 2487.96,186.742 c -0.01,0.039 -0.01,0.067 -0.01,0.11 0,-0.043 0,-0.071 0.01,-0.11"
         style="fill:#3c4b72;fill-opacity:1;fill-rule:nonzero;stroke:none"
         id="path188" /><path
         d="m 2488.78,181.559 c 0.01,0 0.01,0 0.01,0 -0.3,1.48 -0.55,2.953 -0.74,4.39 0.19,-1.457 0.44,-2.929 0.73,-4.39"
         style="fill:#3c4b72;fill-opacity:1;fill-rule:nonzero;stroke:none"
         id="path190" /><path
         d="m 2494.14,166.52 c -0.03,0.07 -0.06,0.14 -0.1,0.21 0.04,-0.07 0.07,-0.14 0.1,-0.21"
         style="fill:#3c4b72;fill-opacity:1;fill-rule:nonzero;stroke:none"
         id="path192" /><path
         d="m 2493.63,167.52 c -0.14,0.281 -0.27,0.57 -0.41,0.839 0.14,-0.289 0.27,-0.558 0.41,-0.839"
         style="fill:#3c4b72;fill-opacity:1;fill-rule:nonzero;stroke:none"
         id="path194" /><path
         d="m 2490.29,175.77 c 0.79,-2.5 1.74,-4.918 2.85,-7.239 -1.12,2.36 -2.06,4.789 -2.83,7.239 h -0.02"
         style="fill:#3c4b72;fill-opacity:1;fill-rule:nonzero;stroke:none"
         id="path196" /></g></g></svg>
