<?xml version="1.0" encoding="UTF-8" standalone="no"?>
<svg
   xmlns:dc="http://purl.org/dc/elements/1.1/"
   xmlns:cc="http://creativecommons.org/ns#"
   xmlns:rdf="http://www.w3.org/1999/02/22-rdf-syntax-ns#"
   xmlns:svg="http://www.w3.org/2000/svg"
   xmlns="http://www.w3.org/2000/svg"
   xmlns:sodipodi="http://sodipodi.sourceforge.net/DTD/sodipodi-0.dtd"
   xmlns:inkscape="http://www.inkscape.org/namespaces/inkscape"
   inkscape:version="1.0 (4035a4fb49, 2020-05-01)"
   sodipodi:docname="new-york.svg"
   version="1.1"
   id="svg2"
   xml:space="preserve"
   width="500"
   height="220"
   viewBox="0 0 500 220"><sodipodi:namedview
     inkscape:current-layer="svg2"
     inkscape:window-maximized="1"
     inkscape:window-y="-9"
     inkscape:window-x="-9"
     inkscape:cy="128.04985"
     inkscape:cx="210.48899"
     inkscape:zoom="1.4182101"
     showgrid="false"
     id="namedview80"
     inkscape:window-height="1001"
     inkscape:window-width="1920"
     inkscape:pageshadow="2"
     inkscape:pageopacity="0"
     guidetolerance="10"
     gridtolerance="10"
     objecttolerance="10"
     borderopacity="1"
     bordercolor="#666666"
     pagecolor="#ffffff"
     inkscape:document-rotation="0" /><metadata
     id="metadata8"><rdf:RDF><cc:Work
         rdf:about=""><dc:format>image/svg+xml</dc:format><dc:type
           rdf:resource="http://purl.org/dc/dcmitype/StillImage" /><dc:title /></cc:Work></rdf:RDF></metadata><defs
     id="defs6" /><g
     id="g10"
     transform="matrix(1.0055268,0,0,-1.0055268,-0.16624649,318.94745)"><g
       id="g12"
       transform="scale(0.1)"><path
         d="M 5000,3183.8559 V 954.13981 H 0 V 3183.8559 h 5000"
         style="fill:#203040;fill-opacity:1;fill-rule:nonzero;stroke:none;stroke-width:0.667789"
         id="path14" /><path
         d="m 916.469,1334.1 c 0,874.56 708.971,1583.53 1583.531,1583.53 874.56,0 1583.53,-708.97 1583.53,-1583.53 H 916.469"
         style="fill:#a0b0c0;fill-opacity:1;fill-rule:nonzero;stroke:none"
         id="path16" /><path
         d="m 2101.39,2035.43 h -250.75 v -682.01 h 250.75 v 682.01"
         style="fill:#607080;fill-opacity:1;fill-rule:nonzero;stroke:none"
         id="path18" /><path
         d="m 2780.55,1898.03 h -250.74 v -544.61 h 250.74 v 544.61"
         style="fill:#607080;fill-opacity:1;fill-rule:nonzero;stroke:none"
         id="path20" /><path
         d="M 2957.5,2047.5 H 2799.81 V 1353.42 H 2957.5 V 2047.5"
         style="fill:#607080;fill-opacity:1;fill-rule:nonzero;stroke:none"
         id="path22" /><path
         d="M 3460,2093.81 H 3180.54 V 1353.42 H 3460 v 740.39"
         style="fill:#607080;fill-opacity:1;fill-rule:nonzero;stroke:none"
         id="path24" /><path
         d="m 3128.16,1913.33 h -157.69 v -559.91 h 157.69 v 559.91"
         style="fill:#607080;fill-opacity:1;fill-rule:nonzero;stroke:none"
         id="path26" /><path
         d="m 3164.27,1850 h -132.52 v -496.58 h 132.52 V 1850"
         style="fill:#607080;fill-opacity:1;fill-rule:nonzero;stroke:none"
         id="path28" /><path
         d="m 3098.01,1955.81 h -97.39 v -496.58 h 97.39 v 496.58"
         style="fill:#607080;fill-opacity:1;fill-rule:nonzero;stroke:none"
         id="path30" /><path
         d="m 4180.55,1898.03 -250.74,42.29 v -586.9 h 250.74 v 544.61"
         style="fill:#607080;fill-opacity:1;fill-rule:nonzero;stroke:none"
         id="path32" /><path
         d="m 1837.42,1780 h -250.74 v -426.58 h 250.74 V 1780"
         style="fill:#607080;fill-opacity:1;fill-rule:nonzero;stroke:none"
         id="path34" /><path
         d="m 1787.05,1929.77 h -149.99 v -426.59 h 149.99 v 426.59"
         style="fill:#607080;fill-opacity:1;fill-rule:nonzero;stroke:none"
         id="path36" /><path
         d="m 1347.49,1684.68 h -149.98 v -296.26 h 149.98 v 296.26"
         style="fill:#607080;fill-opacity:1;fill-rule:nonzero;stroke:none"
         id="path38" /><path
         d="M 1557.42,2015.95 H 1365 v -662.53 h 192.42 v 662.53"
         style="fill:#607080;fill-opacity:1;fill-rule:nonzero;stroke:none"
         id="path40" /><path
         d="M 1557.42,2056.96 H 1420 v -662.53 h 137.42 v 662.53"
         style="fill:#607080;fill-opacity:1;fill-rule:nonzero;stroke:none"
         id="path42" /><path
         d="m 1420,1539.56 h -295 v -186.14 h 295 v 186.14"
         style="fill:#607080;fill-opacity:1;fill-rule:nonzero;stroke:none"
         id="path44" /><path
         d="m 2529.81,1539.56 h -250.75 v -186.14 h 250.75 v 186.14"
         style="fill:#607080;fill-opacity:1;fill-rule:nonzero;stroke:none"
         id="path46" /><path
         d="m 2297.21,1652.95 h -250.75 v -299.53 h 250.75 v 299.53"
         style="fill:#607080;fill-opacity:1;fill-rule:nonzero;stroke:none"
         id="path48" /><path
         d="m 2151.49,1800 h -207.82 v -440.18 h 207.82 V 1800"
         style="fill:#607080;fill-opacity:1;fill-rule:nonzero;stroke:none"
         id="path50" /><path
         d="m 4404.81,1652.95 h -250.75 v -299.53 h 250.75 v 299.53"
         style="fill:#607080;fill-opacity:1;fill-rule:nonzero;stroke:none"
         id="path52" /><path
         d="M 4350,1716.48 H 4208.87 V 1416.94 H 4350 v 299.54"
         style="fill:#607080;fill-opacity:1;fill-rule:nonzero;stroke:none"
         id="path54" /><path
         d="m 3877.97,1607.78 -125.38,117.91 -125.37,-117.91 v -254.36 h 250.75 v 254.36"
         style="fill:#607080;fill-opacity:1;fill-rule:nonzero;stroke:none"
         id="path56" /><path
         d="m 2737.49,1925.26 h -125.37 v -544.62 h 125.37 v 544.62"
         style="fill:#607080;fill-opacity:1;fill-rule:nonzero;stroke:none"
         id="path58" /><path
         d="m 2737.49,1946.73 h -62.68 v -544.61 h 62.68 v 544.61"
         style="fill:#607080;fill-opacity:1;fill-rule:nonzero;stroke:none"
         id="path60" /><path
         d="M 3684.43,1799.36 3512.98,1850 v -496.58 h 171.45 v 445.94"
         style="fill:#607080;fill-opacity:1;fill-rule:nonzero;stroke:none"
         id="path62" /><path
         d="m 3877.97,1940.32 -125.38,39.51 v -544.61 h 125.38 v 505.1"
         style="fill:#607080;fill-opacity:1;fill-rule:nonzero;stroke:none"
         id="path64" /><path
         d="m 2069.03,2066.61 h -186.04 v -642.34 h 186.04 v 642.34"
         style="fill:#607080;fill-opacity:1;fill-rule:nonzero;stroke:none"
         id="path66" /><path
         d="m 2044.7,2091.17 h -93.01 v -642.34 h 93.01 v 642.34"
         style="fill:#607080;fill-opacity:1;fill-rule:nonzero;stroke:none"
         id="path68" /><path
         d="M 3079.96,1410.04 H 523.332 v -56.62 H 3079.96 v 56.62"
         style="fill:#607080;fill-opacity:1;fill-rule:nonzero;stroke:none"
         id="path70" /><path
         d="m 3877.97,1459.23 h -894.53 v -105.81 h 894.53 v 105.81"
         style="fill:#607080;fill-opacity:1;fill-rule:nonzero;stroke:none"
         id="path72" /><path
         d="m 4407.51,1566.71 h -634.18 v -213.29 h 634.18 v 213.29"
         style="fill:#607080;fill-opacity:1;fill-rule:nonzero;stroke:none"
         id="path74" /><path
         d="m 3118.38,1530.47 h -463.2 v -190.51 h 463.2 v 190.51"
         style="fill:#607080;fill-opacity:1;fill-rule:nonzero;stroke:none"
         id="path76" /><path
         d="m 2147.51,1530.47 h -898.66 v -190.51 h 898.66 v 190.51"
         style="fill:#607080;fill-opacity:1;fill-rule:nonzero;stroke:none"
         id="path78" /><path
         d="M 4760.29,1334.1 H 220.285 v 38.64 H 4760.29 v -38.64"
         style="fill:#607080;fill-opacity:1;fill-rule:nonzero;stroke:none"
         id="path80" /><g
         id="g82"
         transform="scale(10)">
</g><path
         d="m 650.844,2497.75 24.504,1.62 c 0.422,-5.74 1.007,-12.39 1.675,-15.92 1.332,-6.97 2.321,-10.62 5.305,-10.95 2.988,-0.33 5.641,2.33 5.641,2.33 l 0.66,-5.32 c 0,0 -2.988,-7.3 -5.305,-11.94 -2.324,-4.65 -4.644,-10.94 -4.644,-10.94 0,0 -12.61,5.96 -16.918,9.95 -4.309,3.98 -4.645,3.64 -6.637,9.28 -1.98,5.65 -0.66,8.97 -3.648,13.94 -0.235,0.4 -0.446,0.79 -0.633,1.19 -2.278,4.76 -2.028,10.56 -5.985,16.37 z M 930.605,1439.88 c 0,45.71 0,109.01 0,115.8 0,15.99 0.2,32 0.348,48.02 v 21.61 h 27.715 v 62.57 h -27.715 v 28.2 H 896.477 V 1757 h -32.118 c -0.121,1.14 -0.226,2.23 -0.363,3.4 -3.941,34.15 5.516,68.6 1.406,102.68 -7.242,60.03 -9.687,120.47 -12.886,180.8 -0.95,17.89 -12.789,61.24 6.187,70.8 9.535,4.81 21.793,-0.9 32.375,4.82 48.238,26.08 22.195,105.33 15.918,145.37 -1.012,6.46 -1.918,13.54 1.434,19.16 2.8,4.7 8.281,7.75 9.781,13.02 1.406,4.94 -1.18,10.04 -3.688,14.52 -8.871,15.87 -17.746,31.75 -26.621,47.62 -11.675,-9.55 -23.437,-21.35 -36.343,-28.77 -2.344,10.06 -6.696,19.05 -11.321,28.62 -4.972,10.28 -11.281,18.58 -16.922,25.21 -4.882,5.75 -9.195,7.45 -15.148,11.27 -6.871,4.42 -11.203,12.21 -17.523,17.54 -6.668,5.62 -9.301,13.49 -15.719,18.63 6.121,5.09 9.824,11.75 10.289,19.88 0.445,7.8 -1.75,15.49 -4.203,22.9 -5.5,0.76 -10.469,4.62 -12.563,9.76 0.301,-0.71 9.785,6.05 10.563,8.15 1.383,3.74 -1.16,9.77 -2.137,13.3 -0.547,1.99 -1.488,4.49 -2.773,7.31 l 27.949,8.18 -34.434,3.54 c -2.039,3.13 -4.363,6.3 -6.945,9.31 l 28.633,22.82 -38.133,-13.58 c -1.656,1.3 -3.371,2.49 -5.149,3.55 -2.484,1.49 -5.425,2.95 -8.683,4.29 l 6.23,34.48 -18.914,-30.43 c -4.914,1.15 -10.043,1.88 -15.14,1.99 l -26.797,39.65 13.894,-40.89 c -5.34,-1.28 -10.281,-3.58 -14.406,-7.21 l -31.363,15.45 -11.016,5.42 11.016,-11.13 25.008,-17.58 c -2.774,-4.5 -4.403,-8.52 -5.239,-12.04 -0.156,-0.65 -32.918,-5.59 -35.152,-5.95 11.644,0.01 23.004,-2.95 34.609,-3.41 0.969,-6.52 4.618,-9.79 4.618,-9.79 l 0.054,-1.02 -23.898,-7.64 -6.922,-2.21 c -2.438,3.89 -4.098,9.67 -7.91,12.46 -3.801,2.78 -4.485,0.76 -7.032,5.59 -10.503,19.89 -8.667,46.55 -13.867,68.1 -6.242,25.88 -9.066,52.45 -15.308,78.34 -2.852,11.82 -6.157,21.7 -10.992,28.67 -4.836,6.99 -6.141,7.41 -6.141,7.41 l 2.238,13.14 c 0,0 4.785,2.01 5.278,4.3 0.492,2.29 -2.282,5.48 -2.282,5.48 0,0 20.125,2.61 20.352,5.91 0.226,3.32 6.683,5.2 4.402,10.68 -1.805,4.33 -3.578,6.66 -2.578,11.5 0.195,0.96 4.281,10.34 5.711,9.2 -7.684,6.1 -16.676,7.67 -26.156,8.44 -2.813,10.43 1.164,13.98 8.011,22.08 4.692,5.54 10.387,11.48 13.461,18.12 2.063,4.46 3.688,9.11 4.844,13.89 0.524,2.15 0.567,10.85 1.899,12.1 -8.774,-8.27 -18.75,-15.26 -29.52,-20.69 3.41,5.99 4.852,13.08 4.051,19.92 -3.317,-5.38 -9.141,-8.66 -14.875,-11.32 -5.738,-2.67 -11.785,-5.06 -16.363,-9.42 -7.055,-6.72 -7.942,-17.56 -4.313,-26.04 0.578,-1.35 7.066,-15.5 5.844,-15.4 -7.426,0.64 -14.973,-0.18 -22.098,-2.37 -1.922,-0.6 -4.008,-1.46 -4.855,-3.28 -1.184,-2.56 0.648,-5.44 0.945,-8.24 0.59,-5.58 -4.93,-10.29 -4.785,-15.9 0.14,-5.49 5.457,-9.21 10.211,-11.96 6.508,-3.76 12.051,-9.56 11.492,-17.66 -0.004,-0.07 -0.402,-5.83 -0.402,-5.83 0,0 -4.762,1.14 -5.856,-3.21 -1.109,-4.36 2.844,-8.46 2.844,-8.46 0,0 -2.828,0 -3.149,-4.62 -0.316,-4.61 3.903,-7.71 3.903,-7.71 0,0 -5.551,-1.64 -2.93,-7.45 2.621,-5.84 6.164,-7.09 6.164,-7.09 1.059,-0.37 1.356,-13.16 1.356,-15.04 -0.012,-8.77 -2.231,-18.08 -3.301,-26.79 -0.418,-3.38 6.297,-17.68 10.32,-17.95 3.598,-0.25 7.699,3.88 7.863,6.07 -3.429,-45.3 6.165,-86.64 18.957,-129.45 2.821,-9.44 5.024,-17.88 2.418,-23.31 -9.941,-19.88 -13.543,-44.43 -21.746,-65.6 19.832,-14.33 29.512,-34.63 47.149,-50.56 3.762,-3.39 15.043,-9.86 16.308,-14.7 1.184,-4.52 -4.777,-15.07 -4.921,-20.84 -0.426,-16.82 2.199,-33.79 0.89,-51.1 -3.387,-44.7 -6.773,-89.4 -10.156,-134.09 -2.063,-27.24 -4.16,-54.6 -2.926,-81.92 1.215,-26.8 6.516,-50.76 3.926,-77.67 -6.535,-67.91 3.101,-139.18 7.363,-207.52 h -49.715 v -39.91 c -11.625,-0.17 -23.382,-0.03 -34.132,-1.01 v -28.2 h -20.481 v -62.57 h 20.481 v -21.61 -163.82 h -20.481 v -86.46 h 438.367 v 86.46 h -31.094"
         style="fill:#607080;fill-opacity:1;fill-rule:evenodd;stroke:none"
         id="path90" /><path
         d="m 2421.06,2171.96 v 65 h -30 v 85 h -59.23 v 190 h -16.54 v -190 h -59.23 v -85 h -30 v -65 h -35 v -803.27 h 35 30 59.23 16.54 59.23 30 35 v 803.27 h -35"
         style="fill:#607080;fill-opacity:1;fill-rule:nonzero;stroke:none"
         id="path92" /><path
         d="m 2487.96,186.742 c -0.01,0.039 -0.01,0.067 -0.01,0.11 0,-0.043 0,-0.071 0.01,-0.11"
         style="fill:#5d5d5d;fill-opacity:1;fill-rule:nonzero;stroke:none"
         id="path140" /><path
         d="m 2488.78,181.559 c 0.01,0 0.01,0 0.01,0 -0.3,1.48 -0.55,2.953 -0.74,4.39 0.19,-1.457 0.44,-2.929 0.73,-4.39"
         style="fill:#5d5d5d;fill-opacity:1;fill-rule:nonzero;stroke:none"
         id="path142" /><path
         d="m 2494.14,166.52 c -0.03,0.07 -0.06,0.14 -0.1,0.21 0.04,-0.07 0.07,-0.14 0.1,-0.21"
         style="fill:#5d5d5d;fill-opacity:1;fill-rule:nonzero;stroke:none"
         id="path144" /><path
         d="m 2493.63,167.52 c -0.14,0.281 -0.27,0.57 -0.41,0.839 0.14,-0.289 0.27,-0.558 0.41,-0.839"
         style="fill:#5d5d5d;fill-opacity:1;fill-rule:nonzero;stroke:none"
         id="path146" /><path
         d="m 2490.29,175.77 c 0.79,-2.5 1.74,-4.918 2.85,-7.239 -1.12,2.36 -2.06,4.789 -2.83,7.239 h -0.02"
         style="fill:#5d5d5d;fill-opacity:1;fill-rule:nonzero;stroke:none"
         id="path148" /></g></g></svg>
