<?xml version="1.0" encoding="UTF-8" standalone="no"?>
<svg
   xmlns:dc="http://purl.org/dc/elements/1.1/"
   xmlns:cc="http://creativecommons.org/ns#"
   xmlns:rdf="http://www.w3.org/1999/02/22-rdf-syntax-ns#"
   xmlns:svg="http://www.w3.org/2000/svg"
   xmlns="http://www.w3.org/2000/svg"
   xmlns:sodipodi="http://sodipodi.sourceforge.net/DTD/sodipodi-0.dtd"
   xmlns:inkscape="http://www.inkscape.org/namespaces/inkscape"
   inkscape:version="1.0 (4035a4fb49, 2020-05-01)"
   sodipodi:docname="repeat.svg"
   xml:space="preserve"
   style="enable-background:new 0 0 18 18;"
   viewBox="0 0 18 18"
   y="0px"
   x="0px"
   id="Capa_1"
   version="1.1"><metadata
   id="metadata43"><rdf:RDF><cc:Work
       rdf:about=""><dc:format>image/svg+xml</dc:format><dc:type
         rdf:resource="http://purl.org/dc/dcmitype/StillImage" /></cc:Work></rdf:RDF></metadata><defs
   id="defs41" /><sodipodi:namedview
   inkscape:current-layer="Capa_1"
   inkscape:window-maximized="1"
   inkscape:window-y="-9"
   inkscape:window-x="-9"
   inkscape:cy="11.689072"
   inkscape:cx="5.4148542"
   inkscape:zoom="46.111111"
   showgrid="false"
   id="namedview39"
   inkscape:window-height="1001"
   inkscape:window-width="1920"
   inkscape:pageshadow="2"
   inkscape:pageopacity="0"
   guidetolerance="10"
   gridtolerance="10"
   objecttolerance="10"
   borderopacity="1"
   bordercolor="#666666"
   pagecolor="#ffffff" />
<g
   style="fill:#ffffff;fill-opacity:1"
   transform="matrix(0.62726486,0,0,0.62726486,3.4048193,3.4955335)"
   id="g6">
	<path
   id="path2"
   d="m 13.5,4 h -2.086 l 1.293,-1.293 c 0.391,-0.391 0.391,-1.023 0,-1.414 -0.391,-0.391 -1.023,-0.391 -1.414,0 L 7.586,5 11.293,8.707 C 11.488,8.902 11.744,9 12,9 c 0.256,0 0.512,-0.098 0.707,-0.293 0.391,-0.391 0.391,-1.023 0,-1.414 L 11.414,6 H 13.5 c 1.379,0 2.5,1.346 2.5,3 0,1.654 -1.346,3 -3,3 v 0 c -0.553,0 -1,0.448 -1,1 0,0.552 0.447,1 1,1 v 0 c 2.757,0 5,-2.243 5,-5 0,-2.757 -2.019,-5 -4.5,-5 z"
   style="fill:#ffffff;fill-opacity:1" />
	<path
   id="path4"
   d="m 5.293,9.293 c -0.391,0.391 -0.391,1.023 0,1.414 L 6.586,12 H 4.5 C 3.121,12 2,10.654 2,9 2,7.346 3.346,6 5,6 V 6 C 5.553,6 6,5.552 6,5 6,4.448 5.553,4 5,4 V 4 C 2.243,4 0,6.243 0,9 c 0,2.757 2.019,5 4.5,5 h 2.086 l -1.293,1.293 c -0.391,0.391 -0.391,1.023 0,1.414 C 5.488,16.902 5.744,17 6,17 6.256,17 6.512,16.902 6.707,16.707 L 10.414,13 6.707,9.293 C 6.316,8.902 5.684,8.902 5.293,9.293 Z"
   style="fill:#ffffff;fill-opacity:1" />
</g>
<g
   id="g8">
</g>
<g
   id="g10">
</g>
<g
   id="g12">
</g>
<g
   id="g14">
</g>
<g
   id="g16">
</g>
<g
   id="g18">
</g>
<g
   id="g20">
</g>
<g
   id="g22">
</g>
<g
   id="g24">
</g>
<g
   id="g26">
</g>
<g
   id="g28">
</g>
<g
   id="g30">
</g>
<g
   id="g32">
</g>
<g
   id="g34">
</g>
<g
   id="g36">
</g>
</svg>
